<svg xmlns="http://www.w3.org/2000/svg" xmlns:xlink="http://www.w3.org/1999/xlink" xmlns:lucid="lucid" width="615" height="122"><g transform="translate(-143 -1096)" lucid:page-tab-id="0_0"><path d="M167.4 1120h80v80h-80z" stroke="#000" stroke-width="2" fill="#fff"/><use xlink:href="#a" transform="matrix(1,0,0,1,172.4037037981907,1125) translate(29.537 42.754999999999995)"/><path d="M247.4 1120h80v80h-80z" stroke="#000" stroke-width="2" fill="#fff"/><use xlink:href="#b" transform="matrix(1,0,0,1,252.4037037981907,1125) translate(29.087 42.754999999999995)"/><path d="M327.4 1120h80v80h-80z" stroke="#000" stroke-width="2" fill="#fff"/><use xlink:href="#c" transform="matrix(1,0,0,1,332.40370379818114,1125) translate(28.817 42.754999999999995)"/><path d="M407.4 1120h80v80h-80z" stroke="#000" stroke-width="2" fill="#fff"/><use xlink:href="#d" transform="matrix(1,0,0,1,412.4037037981716,1125) translate(29.708 42.754999999999995)"/><path d="M487.4 1120h80v80h-80z" stroke="#000" stroke-width="2" fill="#fff"/><use xlink:href="#e" transform="matrix(1,0,0,1,492.40370379816204,1125) translate(29.258 42.754999999999995)"/><path d="M567.4 1120h80v80h-80z" stroke="#000" stroke-width="2" fill="#fff"/><use xlink:href="#f" transform="matrix(1,0,0,1,572.4037037981525,1125) translate(30.032 42.754999999999995)"/><path d="M647.4 1120h80v80h-80z" stroke="#000" stroke-width="2" fill="#fff"/><use xlink:href="#g" transform="matrix(1,0,0,1,652.4037037981429,1125) translate(28.799 42.754999999999995)"/><defs><path d="M191-298h222c-37-120-75-237-109-360h-4c-33 124-71 241-109 360zM506 0l-70-224H168L97 0H3l249-733h103L604 0h-98" id="h"/><use transform="matrix(0.018,0,0,0.018,0,0)" xlink:href="#h" id="a"/><path d="M100 0v-733h218c149 0 252 50 252 179 0 73-39 137-108 159v5c88 17 150 75 150 175C612-71 498 0 334 0H100zm93-421h109c126 0 177-47 177-121 0-86-59-118-173-118H193v239zm0 347h128c126 0 200-45 200-144 0-91-72-132-200-132H193v276" id="i"/><use transform="matrix(0.018,0,0,0.018,0,0)" xlink:href="#i" id="b"/><path d="M100 0v-733h184c225 0 346 131 346 364C630-137 509 0 288 0H100zm93-76h83c173 0 258-108 258-293 0-186-85-289-258-289h-83v582" id="j"/><use transform="matrix(0.018,0,0,0.018,0,0)" xlink:href="#j" id="c"/><path d="M100 0v-733h423v78H193v230h278v79H193v267h341V0H100" id="k"/><use transform="matrix(0.018,0,0,0.018,0,0)" xlink:href="#k" id="d"/><path d="M377 13C195 13 58-128 58-366c0-237 139-381 325-381 89 0 159 44 201 91l-50 60c-38-41-87-70-150-70-139 0-231 114-231 297 0 185 88 301 228 301 70 0 123-31 170-82l51 58C544-25 472 13 377 13" id="l"/><use transform="matrix(0.018,0,0,0.018,0,0)" xlink:href="#l" id="e"/><path d="M100 0v-733h423v78H193v248h280v78H193V0h-93" id="m"/><use transform="matrix(0.018,0,0,0.018,0,0)" xlink:href="#m" id="f"/><path d="M388 13C195 13 58-128 58-366c0-237 142-381 336-381 102 0 169 46 211 91l-50 60c-37-39-84-70-159-70-147 0-243 114-243 297 0 185 87 301 244 301 53 0 104-16 133-43v-192H375v-77h240v308c-47 49-128 85-227 85" id="n"/><use transform="matrix(0.018,0,0,0.018,0,0)" xlink:href="#n" id="g"/></defs></g></svg>