<?xml version="1.0" encoding="UTF-8" standalone="no"?>
<svg
   xmlns:dc="http://purl.org/dc/elements/1.1/"
   xmlns:cc="http://creativecommons.org/ns#"
   xmlns:rdf="http://www.w3.org/1999/02/22-rdf-syntax-ns#"
   xmlns:svg="http://www.w3.org/2000/svg"
   xmlns="http://www.w3.org/2000/svg"
   xmlns:sodipodi="http://sodipodi.sourceforge.net/DTD/sodipodi-0.dtd"
   xmlns:inkscape="http://www.inkscape.org/namespaces/inkscape"
   version="1.1"
   id="svg2"
   xml:space="preserve"
   width="1200"
   height="1200"
   viewBox="0 0 1200 1200"
   inkscape:version="0.91 r13725"
   sodipodi:docname="logo-square.svg"
   inkscape:export-filename="/home/tani/Now/slack_blog_haskelljp/haskell-jp-works/logo-square.png"
   inkscape:export-xdpi="90"
   inkscape:export-ydpi="90"><sodipodi:namedview
     pagecolor="#ffffff"
     bordercolor="#666666"
     borderopacity="1"
     objecttolerance="10"
     gridtolerance="10"
     guidetolerance="10"
     inkscape:pageopacity="0"
     inkscape:pageshadow="2"
     inkscape:window-width="1215"
     inkscape:window-height="776"
     id="namedview39"
     showgrid="false"
     inkscape:zoom="0.36842444"
     inkscape:cx="568.48722"
     inkscape:cy="422.68413"
     inkscape:window-x="65"
     inkscape:window-y="24"
     inkscape:window-maximized="1"
     inkscape:current-layer="g12" /><metadata
     id="metadata8"><rdf:RDF><cc:Work
         rdf:about=""><dc:format>image/svg+xml</dc:format><dc:type
           rdf:resource="http://purl.org/dc/dcmitype/StillImage" /><dc:title /></cc:Work></rdf:RDF></metadata><defs
     id="defs6"><clipPath
       clipPathUnits="userSpaceOnUse"
       id="clipPath18"><path
         d="m 0,400 1107.929,0 0,-400 L 0,0 Z"
         id="path16"
         inkscape:connector-curvature="0" /></clipPath></defs><g
     id="g12"
     transform="matrix(1.3333333,0,0,-1.3333333,-24.129599,1299.1945)"><g
       id="g4227"
       transform="matrix(2.4900242,0,0,2.4900242,-910.37056,-525.00812)"><g
         transform="translate(508.39104,528.20403)"
         id="g20"><path
           inkscape:connector-curvature="0"
           id="path22"
           style="fill:#fad9e1;fill-opacity:1;fill-rule:nonzero;stroke:none"
           d="m 0,0 c -8.07,49.395 12.127,56.38 12.127,56.38 l 20.741,-21.593 13.13,26.677 c 0,0 23.712,-0.484 28.144,-50.337 3.205,-36.063 -28.94,-60.961 -28.94,-60.961 0,0 -38.881,11.149 -45.202,49.834" /></g><g
         transform="translate(474.47354,435.78753)"
         id="g24"><path
           inkscape:connector-curvature="0"
           id="path26"
           style="fill:#fad9e1;fill-opacity:1;fill-rule:nonzero;stroke:none"
           d="m 0,0 c -49.471,7.588 -49.874,28.955 -49.874,28.955 l 26.947,13.054 -21.314,20.73 c 0,0 7.786,22.403 56.569,11.212 C 47.617,65.855 61.364,27.589 61.364,27.589 61.364,27.589 38.745,-5.943 0,0" /></g><g
         transform="translate(554.02234,373.91933)"
         id="g28"><path
           inkscape:connector-curvature="0"
           id="path30"
           style="fill:#fad9e1;fill-opacity:1;fill-rule:nonzero;stroke:none"
           d="m 0,0 c -22.504,-44.705 -42.95,-38.484 -42.95,-38.484 l -4.088,29.661 -26.302,-13.865 c 0,0 -18.9,14.328 6.818,57.265 18.604,31.061 59.245,32.309 59.245,32.309 0,0 24.902,-31.874 7.277,-66.886" /></g><g
         transform="translate(637.65714,431.18303)"
         id="g32"><path
           inkscape:connector-curvature="0"
           id="path34"
           style="fill:#fad9e1;fill-opacity:1;fill-rule:nonzero;stroke:none"
           d="m 0,0 c 35.563,-35.217 23.329,-52.74 23.329,-52.74 l -29.473,5.278 5.059,-29.3 c 0,0 -19.468,-13.547 -52.356,24.181 -23.791,27.292 -12.42,66.33 -12.42,66.33 0,0 38.009,13.833 65.861,-13.749" /></g><g
         transform="translate(608.02484,526.11753)"
         id="g36"><path
           inkscape:connector-curvature="0"
           id="path38"
           style="fill:#fad9e1;fill-opacity:1;fill-rule:nonzero;stroke:none"
           d="M 0,0 C 44.483,22.939 57.368,5.889 57.368,5.889 L 43.241,-20.51 72.669,-24.753 c 0,0 6.869,-22.701 -39.175,-42.321 -33.308,-14.194 -66.922,8.684 -66.922,8.684 0,0 -1.41,40.424 33.428,58.39" /></g><g
         transform="translate(631.51304,383.72113)"
         id="g40"><path
           inkscape:connector-curvature="0"
           id="path42"
           style="fill:#d66c79;fill-opacity:1;fill-rule:nonzero;stroke:none"
           d="m 0,0 c 0,0 -46.32,43.115 -64.292,83.227 -17.15,38.275 -25.962,96.043 -25.962,96.043 l -20.741,21.593 c 0,0 -20.197,-6.986 -12.127,-56.38 3.141,-19.225 27.128,-66.182 27.128,-66.182 -12.181,-9.443 -34.91,-31.64 -48.019,-53.526 -25.717,-42.936 -6.818,-57.265 -6.818,-57.265 l 26.303,13.865 43.15,70.825 c 0,0 10.29,-30.027 34.081,-57.319 C -14.409,-42.847 5.059,-29.3 5.059,-29.3 Z" /></g></g><g
       id="g44"
       transform="translate(199.33578,137.18021)"><path
         d="m 0,0 -19.837,0 0,59.51 -53.353,0 0,-59.51 -19.837,0 0,130.99 19.837,0 0,-54.038 53.353,0 0,54.038 19.837,0 z"
         style="fill:#7a8952;fill-opacity:1;fill-rule:nonzero;stroke:none"
         id="path46"
         inkscape:connector-curvature="0" /></g><g
       id="g48"
       transform="translate(272.18148,184.54831)"><path
         d="m 0,0 c -15.562,0 -33.517,-2.907 -33.517,-19.665 0,-10.432 6.498,-15.049 13.851,-15.049 10.773,0 19.666,8.208 19.666,19.152 z m 19.323,-24.967 c 0,-8.037 0.171,-16.245 1.368,-22.401 l -17.955,0 -1.368,10.944 -0.514,0 c -5.3,-7.353 -14.535,-12.825 -26.333,-12.825 -17.615,0 -27.704,12.996 -27.704,27.531 0,23.428 20.35,35.057 52.67,35.057 0,7.011 0,21.033 -18.982,21.033 -8.379,0 -16.929,-2.564 -22.914,-6.498 l -4.105,13.168 c 6.669,4.274 17.785,7.866 30.44,7.866 27.702,0 35.397,-18.298 35.397,-38.305 z"
         style="fill:#7a8952;fill-opacity:1;fill-rule:nonzero;stroke:none"
         id="path50"
         inkscape:connector-curvature="0" /></g><g
       id="g52"
       transform="translate(363.32598,213.61961)"><path
         d="m 0,0 c -3.762,2.394 -10.261,5.301 -17.955,5.301 -8.893,0 -13.681,-5.13 -13.681,-11.457 0,-6.498 4.276,-9.747 15.733,-14.706 15.561,-6.328 23.769,-14.878 23.769,-28.559 0,-18.126 -13.851,-28.899 -35.226,-28.899 -9.919,0 -19.325,2.564 -25.652,6.327 l 4.447,14.706 c 4.788,-2.907 13.509,-6.327 21.546,-6.327 10.603,0 15.733,5.13 15.733,12.312 0,7.183 -3.934,11.115 -15.22,15.904 -16.759,6.669 -24.111,16.075 -24.111,27.019 0,15.733 12.825,28.216 32.662,28.216 9.233,0 17.271,-2.566 22.401,-5.473 z"
         style="fill:#7a8952;fill-opacity:1;fill-rule:nonzero;stroke:none"
         id="path54"
         inkscape:connector-curvature="0" /></g><g
       id="g56"
       transform="translate(469.00668,137.18021)"><path
         d="m 0,0 -23.94,0 -27.019,43.265 -7.695,-9.406 0,-33.859 -19.837,0 0,137.146 19.837,0 0,-85.332 0.341,0 c 2.223,3.591 4.789,7.696 7.183,10.945 l 23.428,31.465 23.428,0 -33.176,-38.819 z"
         style="fill:#7a8952;fill-opacity:1;fill-rule:nonzero;stroke:none"
         id="path58"
         inkscape:connector-curvature="0" /></g><g
       id="g60"
       transform="translate(535.01248,193.95361)"><path
         d="M 0,0 C 0.171,11.287 -4.446,25.31 -19.665,25.31 -34.201,25.31 -40.357,10.944 -41.383,0 Z m 14.022,-53.012 c -6.668,-3.078 -17.1,-5.642 -29.925,-5.642 -28.387,0 -44.804,18.981 -44.804,47.71 0,28.045 15.732,50.447 42.41,50.447 26.505,0 37.108,-22.061 37.108,-45.316 0,-3.25 -0.171,-5.986 -0.513,-8.38 l -59.852,0 c 0.513,-21.204 13.68,-29.242 28.558,-29.242 10.432,0 17.613,1.881 23.769,4.446 z"
         style="fill:#7a8952;fill-opacity:1;fill-rule:nonzero;stroke:none"
         id="path62"
         inkscape:connector-curvature="0" /></g><path
       d="m 592.81258,137.18031 -19.837,0 0,137.146 19.837,0 z"
       style="fill:#7a8952;fill-opacity:1;fill-rule:nonzero;stroke:none"
       id="path64"
       inkscape:connector-curvature="0" /><path
       d="m 637.95558,137.18031 -19.837,0 0,137.146 19.837,0 z"
       style="fill:#7a8952;fill-opacity:1;fill-rule:nonzero;stroke:none"
       id="path66"
       inkscape:connector-curvature="0" /><path
       d="m 653.42258,185.67731 47.026,0 0,-14.193 -47.026,0 z"
       style="fill:#d66c79;fill-opacity:1;fill-rule:nonzero;stroke:none"
       id="path68"
       inkscape:connector-curvature="0" /><g
       id="g70"
       transform="translate(734.05648,245.93941)"><path
         d="m 0,0 c -6.841,0 -11.457,5.13 -11.457,11.458 0,6.668 4.788,11.628 11.628,11.628 7.011,0 11.457,-4.96 11.457,-11.628 C 11.628,5.13 7.182,0 0,0 m 10.089,-100.209 c 0,-19.153 -3.249,-30.781 -11.457,-38.818 -7.525,-7.182 -19.494,-10.261 -29.242,-10.261 l -2.052,15.562 c 20.52,2.052 22.915,12.142 22.915,39.673 l 0,79.688 19.836,0 z"
         style="fill:#d66c79;fill-opacity:1;fill-rule:nonzero;stroke:none"
         id="path72"
         inkscape:connector-curvature="0" /></g><g
       id="g74"
       transform="translate(788.94708,175.14301)"><path
         d="m 0,0 c 0,-16.93 11.628,-24.111 21.375,-24.111 15.391,0 23.771,14.193 23.771,33.687 0,17.956 -8.038,32.833 -23.257,32.833 C 10.089,42.409 0,31.294 0,17.442 Z m -1.71,41.896 c 6.498,10.603 16.758,16.417 29.926,16.417 21.204,0 37.108,-18.81 37.108,-48.052 0,-34.543 -20.008,-50.105 -39.845,-50.105 -11.286,0 -20.52,5.301 -25.137,12.996 l -0.342,0 0,-49.249 -19.837,0 0,101.919 c 0,12.313 -0.342,22.06 -0.684,30.439 l 17.443,0 1.025,-14.365 z"
         style="fill:#d66c79;fill-opacity:1;fill-rule:nonzero;stroke:none"
         id="path76"
         inkscape:connector-curvature="0" /></g></g></svg>