<?xml version="1.0" encoding="UTF-8" standalone="no"?>
<svg
   xmlns:dc="http://purl.org/dc/elements/1.1/"
   xmlns:cc="http://creativecommons.org/ns#"
   xmlns:rdf="http://www.w3.org/1999/02/22-rdf-syntax-ns#"
   xmlns:svg="http://www.w3.org/2000/svg"
   xmlns="http://www.w3.org/2000/svg"
   version="1.1"
   id="svg2"
   xml:space="preserve"
   width="1394.4417"
   height="339.37012"
   viewBox="0 0 1394.4417 339.37012"><metadata
     id="metadata8"><rdf:RDF><cc:Work
         rdf:about=""><dc:format>image/svg+xml</dc:format><dc:type
           rdf:resource="http://purl.org/dc/dcmitype/StillImage" /><dc:title></dc:title></cc:Work></rdf:RDF></metadata><defs
     id="defs6"><clipPath
       clipPathUnits="userSpaceOnUse"
       id="clipPath18"><path
         d="M 0,400 H 1107.929 V 0 H 0 Z"
         id="path16" /></clipPath></defs><g
     id="g10"
     transform="matrix(1.3333333,0,0,-1.3333333,-24.129599,438.56466)"><g
       id="g12"><g
         id="g14"
         clip-path="url(#clipPath18)"><g
           id="g20"
           transform="translate(101.8887,267.4595)"><path
             d="m 0,0 c -8.07,49.395 12.127,56.38 12.127,56.38 l 20.741,-21.593 13.13,26.677 c 0,0 23.712,-0.484 28.144,-50.337 3.205,-36.063 -28.94,-60.961 -28.94,-60.961 0,0 -38.881,11.149 -45.202,49.834"
             style="fill:#fad9e1;fill-opacity:1;fill-rule:nonzero;stroke:none"
             id="path22" /></g><g
           id="g24"
           transform="translate(67.9712,175.043)"><path
             d="m 0,0 c -49.471,7.588 -49.874,28.955 -49.874,28.955 l 26.947,13.054 -21.314,20.73 c 0,0 7.786,22.403 56.569,11.212 C 47.617,65.855 61.364,27.589 61.364,27.589 61.364,27.589 38.745,-5.943 0,0"
             style="fill:#fad9e1;fill-opacity:1;fill-rule:nonzero;stroke:none"
             id="path26" /></g><g
           id="g28"
           transform="translate(147.52,113.1748)"><path
             d="m 0,0 c -22.504,-44.705 -42.95,-38.484 -42.95,-38.484 l -4.088,29.661 -26.302,-13.865 c 0,0 -18.9,14.328 6.818,57.265 18.604,31.061 59.245,32.309 59.245,32.309 0,0 24.902,-31.874 7.277,-66.886"
             style="fill:#fad9e1;fill-opacity:1;fill-rule:nonzero;stroke:none"
             id="path30" /></g><g
           id="g32"
           transform="translate(231.1548,170.4385)"><path
             d="m 0,0 c 35.563,-35.217 23.329,-52.74 23.329,-52.74 l -29.473,5.278 5.059,-29.3 c 0,0 -19.468,-13.547 -52.356,24.181 -23.791,27.292 -12.42,66.33 -12.42,66.33 0,0 38.009,13.833 65.861,-13.749"
             style="fill:#fad9e1;fill-opacity:1;fill-rule:nonzero;stroke:none"
             id="path34" /></g><g
           id="g36"
           transform="translate(201.5225,265.373)"><path
             d="M 0,0 C 44.483,22.939 57.368,5.889 57.368,5.889 L 43.241,-20.51 72.669,-24.753 c 0,0 6.869,-22.701 -39.175,-42.321 -33.308,-14.194 -66.922,8.684 -66.922,8.684 0,0 -1.41,40.424 33.428,58.39"
             style="fill:#fad9e1;fill-opacity:1;fill-rule:nonzero;stroke:none"
             id="path38" /></g><g
           id="g40"
           transform="translate(225.0107,122.9766)"><path
             d="m 0,0 c 0,0 -46.32,43.115 -64.292,83.227 -17.15,38.275 -25.962,96.043 -25.962,96.043 l -20.741,21.593 c 0,0 -20.197,-6.986 -12.127,-56.38 3.141,-19.225 27.128,-66.182 27.128,-66.182 -12.181,-9.443 -34.91,-31.64 -48.019,-53.526 -25.717,-42.936 -6.818,-57.265 -6.818,-57.265 l 26.303,13.865 43.15,70.825 c 0,0 10.29,-30.027 34.081,-57.319 C -14.409,-42.847 5.059,-29.3 5.059,-29.3 Z"
             style="fill:#d66c79;fill-opacity:1;fill-rule:nonzero;stroke:none"
             id="path42" /></g><g
           id="g44"
           transform="translate(408.9932,148.4229)"><path
             d="M 0,0 H -19.837 V 59.51 H -73.19 V 0 H -93.027 V 130.99 H -73.19 V 76.952 h 53.353 V 130.99 H 0 Z"
             style="fill:#7a8952;fill-opacity:1;fill-rule:nonzero;stroke:none"
             id="path46" /></g><g
           id="g48"
           transform="translate(481.8389,195.791)"><path
             d="m 0,0 c -15.562,0 -33.517,-2.907 -33.517,-19.665 0,-10.432 6.498,-15.049 13.851,-15.049 10.773,0 19.666,8.208 19.666,19.152 z m 19.323,-24.967 c 0,-8.037 0.171,-16.245 1.368,-22.401 H 2.736 L 1.368,-36.424 H 0.854 c -5.3,-7.353 -14.535,-12.825 -26.333,-12.825 -17.615,0 -27.704,12.996 -27.704,27.531 0,23.428 20.35,35.057 52.67,35.057 0,7.011 0,21.033 -18.982,21.033 -8.379,0 -16.929,-2.564 -22.914,-6.498 l -4.105,13.168 c 6.669,4.274 17.785,7.866 30.44,7.866 27.702,0 35.397,-18.298 35.397,-38.305 z"
             style="fill:#7a8952;fill-opacity:1;fill-rule:nonzero;stroke:none"
             id="path50" /></g><g
           id="g52"
           transform="translate(572.9834,224.8623)"><path
             d="m 0,0 c -3.762,2.394 -10.261,5.301 -17.955,5.301 -8.893,0 -13.681,-5.13 -13.681,-11.457 0,-6.498 4.276,-9.747 15.733,-14.706 15.561,-6.328 23.769,-14.878 23.769,-28.559 0,-18.126 -13.851,-28.899 -35.226,-28.899 -9.919,0 -19.325,2.564 -25.652,6.327 l 4.447,14.706 c 4.788,-2.907 13.509,-6.327 21.546,-6.327 10.603,0 15.733,5.13 15.733,12.312 0,7.183 -3.934,11.115 -15.22,15.904 -16.759,6.669 -24.111,16.075 -24.111,27.019 0,15.733 12.825,28.216 32.662,28.216 9.233,0 17.271,-2.566 22.401,-5.473 z"
             style="fill:#7a8952;fill-opacity:1;fill-rule:nonzero;stroke:none"
             id="path54" /></g><g
           id="g56"
           transform="translate(678.6641,148.4229)"><path
             d="m 0,0 h -23.94 l -27.019,43.265 -7.695,-9.406 V 0 h -19.837 v 137.146 h 19.837 V 51.814 h 0.341 c 2.223,3.591 4.789,7.696 7.183,10.945 l 23.428,31.465 H -4.274 L -37.45,55.405 Z"
             style="fill:#7a8952;fill-opacity:1;fill-rule:nonzero;stroke:none"
             id="path58" /></g><g
           id="g60"
           transform="translate(744.6699,205.1963)"><path
             d="M 0,0 C 0.171,11.287 -4.446,25.31 -19.665,25.31 -34.201,25.31 -40.357,10.944 -41.383,0 Z m 14.022,-53.012 c -6.668,-3.078 -17.1,-5.642 -29.925,-5.642 -28.387,0 -44.804,18.981 -44.804,47.71 0,28.045 15.732,50.447 42.41,50.447 26.505,0 37.108,-22.061 37.108,-45.316 0,-3.25 -0.171,-5.986 -0.513,-8.38 h -59.852 c 0.513,-21.204 13.68,-29.242 28.558,-29.242 10.432,0 17.613,1.881 23.769,4.446 z"
             style="fill:#7a8952;fill-opacity:1;fill-rule:nonzero;stroke:none"
             id="path62" /></g><path
           d="M 802.47,148.423 H 782.633 V 285.569 H 802.47 Z"
           style="fill:#7a8952;fill-opacity:1;fill-rule:nonzero;stroke:none"
           id="path64" /><path
           d="m 847.613,148.423 h -19.837 v 137.146 h 19.837 z"
           style="fill:#7a8952;fill-opacity:1;fill-rule:nonzero;stroke:none"
           id="path66" /><path
           d="m 866.08,207.42 h 47.026 V 193.227 H 866.08 Z"
           style="fill:#d66c79;fill-opacity:1;fill-rule:nonzero;stroke:none"
           id="path68" /><g
           id="g70"
           transform="translate(943.7139,257.1821)"><path
             d="m 0,0 c -6.841,0 -11.457,5.13 -11.457,11.458 0,6.668 4.788,11.628 11.628,11.628 7.011,0 11.457,-4.96 11.457,-11.628 C 11.628,5.13 7.182,0 0,0 m 10.089,-100.209 c 0,-19.153 -3.249,-30.781 -11.457,-38.818 -7.525,-7.182 -19.494,-10.261 -29.242,-10.261 l -2.052,15.562 c 20.52,2.052 22.915,12.142 22.915,39.673 v 79.688 h 19.836 z"
             style="fill:#d66c79;fill-opacity:1;fill-rule:nonzero;stroke:none"
             id="path72" /></g><g
           id="g74"
           transform="translate(998.6045,186.3857)"><path
             d="m 0,0 c 0,-16.93 11.628,-24.111 21.375,-24.111 15.391,0 23.771,14.193 23.771,33.687 0,17.956 -8.038,32.833 -23.257,32.833 C 10.089,42.409 0,31.294 0,17.442 Z m -1.71,41.896 c 6.498,10.603 16.758,16.417 29.926,16.417 21.204,0 37.108,-18.81 37.108,-48.052 0,-34.543 -20.008,-50.105 -39.845,-50.105 -11.286,0 -20.52,5.301 -25.137,12.996 H 0 V -76.097 H -19.837 V 25.822 c 0,12.313 -0.342,22.06 -0.684,30.439 h 17.443 l 1.025,-14.365 z"
             style="fill:#d66c79;fill-opacity:1;fill-rule:nonzero;stroke:none"
             id="path76" /></g></g></g></g></svg>