<svg xmlns="http://www.w3.org/2000/svg" xmlns:xlink="http://www.w3.org/1999/xlink" xmlns:lucid="lucid" width="722" height="436"><g transform="translate(-160 -163)" lucid:page-tab-id="0_0"><path d="M540 220c0 22.1-17.9 40-40 40s-40-17.9-40-40 17.9-40 40-40 40 17.9 40 40z" stroke="#000" stroke-width="2" fill="#fff"/><use xlink:href="#a" transform="matrix(1,0,0,1,465,185) translate(29.537 42.754999999999995)"/><path d="M380 400c0 22.1-17.9 40-40 40s-40-17.9-40-40 17.9-40 40-40 40 17.9 40 40z" stroke="#000" stroke-width="2" fill="#fff"/><use xlink:href="#b" transform="matrix(1,0,0,1,305,365) translate(29.087 42.754999999999995)"/><path d="M260 540c0 22.1-17.9 40-40 40s-40-17.9-40-40 17.9-40 40-40 40 17.9 40 40z" stroke="#000" stroke-width="2" fill="#fff"/><use xlink:href="#c" transform="matrix(1,0,0,1,185,505) translate(28.817 42.754999999999995)"/><path d="M460 540c0 22.1-17.9 40-40 40s-40-17.9-40-40 17.9-40 40-40 40 17.9 40 40z" stroke="#000" stroke-width="2" fill="#fff"/><use xlink:href="#d" transform="matrix(1,0,0,1,385,505) translate(29.708 42.754999999999995)"/><path d="M720 400c0 22.1-17.9 40-40 40s-40-17.9-40-40 17.9-40 40-40 40 17.9 40 40z" stroke="#000" stroke-width="2" fill="#fff"/><use xlink:href="#e" transform="matrix(1,0,0,1,645,365) translate(29.258 42.754999999999995)"/><path d="M860 540c0 22.1-17.9 40-40 40s-40-17.9-40-40 17.9-40 40-40 40 17.9 40 40z" stroke="#000" stroke-width="2" fill="#fff"/><use xlink:href="#f" transform="matrix(1,0,0,1,785,505) translate(28.799 42.754999999999995)"/><path d="M660 540c0 22.1-17.9 40-40 40s-40-17.9-40-40 17.9-40 40-40 40 17.9 40 40z" stroke="#000" stroke-width="2" fill="#fff"/><use xlink:href="#g" transform="matrix(1,0,0,1,585,505) translate(30.032 42.754999999999995)"/><path d="M472.2 251.4L366.52 367.54" stroke="#000" stroke-width="2" fill="none"/><path d="M473.64 251.3l-.72.8-1.48-1.34.65-.72zM367.27 368.18l-.65.73-1.55-1.27.72-.8z"/><path d="M312.16 431.38l-71.88 71.88" stroke="#000" stroke-width="2" fill="none"/><path d="M313.64 431.3l-.8.8-1.4-1.4.65-.67zM241 503.95l-.55.56-.82-.5-1.02-.48 1-1z"/><path d="M360.8 436.4l38.4 67.2" stroke="#000" stroke-width="2" fill="none"/><path d="M361.68 435.93l-1.73 1-.52-.9 1.75-.98zM400.57 503.97l-1.75.98-.5-.88 1.73-1z"/><path d="M530.7 248.65l120.15 121.22" stroke="#000" stroke-width="2" fill="none"/><path d="M531.44 247.97l-1.42 1.4-.74-.74.73-.7.64-.76zM652.28 369.9l-1.45 1.37-.7-.72 1.4-1.4z"/><path d="M655.38 434l-34.9 64.12" stroke="#000" stroke-width="2" fill="none"/><path d="M656.03 433.27l.66.4-.46.83-1.76-.95.6-1.07zM621.37 498.58l-.27.5-1.1-.08-1.16.04.77-1.42z"/><path d="M713.17 425.65l81.18 81.18" stroke="#000" stroke-width="2" fill="none"/><path d="M713.9 424.96l-1.4 1.42-.67-.66 1.27-1.55zM795.88 506.94l-1.63 1.2-.62-.62 1.4-1.4z"/><defs><path d="M191-298h222c-37-120-75-237-109-360h-4c-33 124-71 241-109 360zM506 0l-70-224H168L97 0H3l249-733h103L604 0h-98" id="h"/><use transform="matrix(0.018,0,0,0.018,0,0)" xlink:href="#h" id="a"/><path d="M100 0v-733h218c149 0 252 50 252 179 0 73-39 137-108 159v5c88 17 150 75 150 175C612-71 498 0 334 0H100zm93-421h109c126 0 177-47 177-121 0-86-59-118-173-118H193v239zm0 347h128c126 0 200-45 200-144 0-91-72-132-200-132H193v276" id="i"/><use transform="matrix(0.018,0,0,0.018,0,0)" xlink:href="#i" id="b"/><path d="M100 0v-733h184c225 0 346 131 346 364C630-137 509 0 288 0H100zm93-76h83c173 0 258-108 258-293 0-186-85-289-258-289h-83v582" id="j"/><use transform="matrix(0.018,0,0,0.018,0,0)" xlink:href="#j" id="c"/><path d="M100 0v-733h423v78H193v230h278v79H193v267h341V0H100" id="k"/><use transform="matrix(0.018,0,0,0.018,0,0)" xlink:href="#k" id="d"/><path d="M377 13C195 13 58-128 58-366c0-237 139-381 325-381 89 0 159 44 201 91l-50 60c-38-41-87-70-150-70-139 0-231 114-231 297 0 185 88 301 228 301 70 0 123-31 170-82l51 58C544-25 472 13 377 13" id="l"/><use transform="matrix(0.018,0,0,0.018,0,0)" xlink:href="#l" id="e"/><path d="M388 13C195 13 58-128 58-366c0-237 142-381 336-381 102 0 169 46 211 91l-50 60c-37-39-84-70-159-70-147 0-243 114-243 297 0 185 87 301 244 301 53 0 104-16 133-43v-192H375v-77h240v308c-47 49-128 85-227 85" id="m"/><use transform="matrix(0.018,0,0,0.018,0,0)" xlink:href="#m" id="f"/><path d="M100 0v-733h423v78H193v248h280v78H193V0h-93" id="n"/><use transform="matrix(0.018,0,0,0.018,0,0)" xlink:href="#n" id="g"/></defs></g></svg>